{
  "accessors": [
    {
      "bufferView": 2,
      "componentType": 5126,
      "count": 8202,
      "max": [
        2.4020450115203857,
        6.303009986877441,
        1.9600830078125
      ],
      "min": [
        -2.4022719860076904,
        -5.093900203704834,
        -2.377000093460083
      ],
      "type": "VEC3"
    },
    {
      "bufferView": 2,
      "byteOffset": 98424,
      "componentType": 5126,
      "count": 8202,
      "max": [
        1.0,
        1.0,
        1.0
      ],
      "min": [
        -1.0,
        -1.0,
        -1.0
      ],
      "type": "VEC3"
    },
    {
      "bufferView": 1,
      "componentType": 5126,
      "count": 8202,
      "max": [
        0.9992759823799133,
        -0.0013680000556632876
      ],
      "min": [
        -0.0008329999982379377,
        -0.9995369911193848
      ],
      "type": "VEC2"
    },
    {
      "bufferView": 0,
      "componentType": 5125,
      "count": 18144,
      "type": "SCALAR"
    },
    {
      "bufferView": 2,
      "byteOffset": 196848,
      "componentType": 5126,
      "count": 303,
      "max": [
        0.4893139898777008,
        -2.582580089569092,
        0.3910079896450043
      ],
      "min": [
        -0.49185800552368164,
        -4.119752883911133,
        -0.9790729880332947
      ],
      "type": "VEC3"
    },
    {
      "bufferView": 2,
      "byteOffset": 200484,
      "componentType": 5126,
      "count": 303,
      "max": [
        0.9891419410705566,
        1.0,
        1.0
      ],
      "min": [
        -0.9891419410705566,
        -0.9999998211860657,
        -1.0
      ],
      "type": "VEC3"
    },
    {
      "bufferView": 1,
      "byteOffset": 65616,
      "componentType": 5126,
      "count": 303,
      "max": [
        0.9840229749679565,
        -0.012622999958693981
      ],
      "min": [
        0.015951000154018402,
        -1.0
      ],
      "type": "VEC2"
    },
    {
      "bufferView": 0,
      "byteOffset": 72576,
      "componentType": 5125,
      "count": 513,
      "type": "SCALAR"
    },
    {
      "bufferView": 2,
      "byteOffset": 204120,
      "componentType": 5126,
      "count": 128,
      "max": [
        7.1389079093933105,
        6.539046764373779,
        3.2291719913482666
      ],
      "min": [
        -7.138908863067627,
        -7.212024211883545,
        -1.7036160230636597
      ],
      "type": "VEC3"
    },
    {
      "bufferView": 2,
      "byteOffset": 205656,
      "componentType": 5126,
      "count": 128,
      "max": [
        1.0,
        0.0,
        0.9993220567703247
      ],
      "min": [
        -0.23477725684642792,
        -0.4876980185508728,
        0.0
      ],
      "type": "VEC3"
    },
    {
      "bufferView": 1,
      "byteOffset": 68040,
      "componentType": 5126,
      "count": 128,
      "max": [
        1.000480055809021,
        -0.0
      ],
      "min": [
        0.03259100019931793,
        -1.0
      ],
      "type": "VEC2"
    },
    {
      "bufferView": 0,
      "byteOffset": 74628,
      "componentType": 5125,
      "count": 588,
      "type": "SCALAR"
    }
  ],
  "asset": {
    "extras": {
      "author": "United 2.0 (https://sketchfab.com/savounited)",
      "license": "CC-BY-4.0 (http://creativecommons.org/licenses/by/4.0/)",
      "source": "https://sketchfab.com/3d-models/hunter-chopper-3255ecac97d24b9a92fa8e787924b05f",
      "title": "Hunter Chopper"
    },
    "generator": "Sketchfab-16.16.0",
    "version": "2.0"
  },
  "bufferViews": [
    {
      "buffer": 0,
      "byteLength": 76980,
      "name": "floatBufferViews",
      "target": 34963
    },
    {
      "buffer": 0,
      "byteLength": 69064,
      "byteOffset": 76980,
      "byteStride": 8,
      "name": "floatBufferViews",
      "target": 34962
    },
    {
      "buffer": 0,
      "byteLength": 207192,
      "byteOffset": 146044,
      "byteStride": 12,
      "name": "floatBufferViews",
      "target": 34962
    }
  ],
  "buffers": [
    {
      "byteLength": 353236,
      "uri": "scene.bin"
    }
  ],
  "images": [
    {
      "uri": "textures/Combine_Helicopter_1_combine_helicopter01._baseColor.png"
    },
    {
      "uri": "textures/Combine_Helicopter_2_combine_helicopter02_baseColor.png"
    },
    {
      "uri": "textures/Material.001_combine_helicopter_ne_baseColor.png"
    }
  ],
  "materials": [
    {
      "doubleSided": true,
      "name": "Combine_Helicopter_1_combine_helicopter01.",
      "pbrMetallicRoughness": {
        "baseColorTexture": {
          "index": 0
        },
        "metallicFactor": 0.0,
        "roughnessFactor": 0.8434915419926713
      }
    },
    {
      "doubleSided": true,
      "name": "Combine_Helicopter_2_combine_helicopter02",
      "pbrMetallicRoughness": {
        "baseColorTexture": {
          "index": 1
        },
        "metallicFactor": 0.0,
        "roughnessFactor": 0.8434915419926713
      }
    },
    {
      "alphaMode": "BLEND",
      "doubleSided": true,
      "name": "Material.001_combine_helicopter_ne",
      "pbrMetallicRoughness": {
        "baseColorTexture": {
          "index": 2
        },
        "metallicFactor": 0.0,
        "roughnessFactor": 0.8434915419926713
      }
    }
  ],
  "meshes": [
    {
      "name": "Object_0",
      "primitives": [
        {
          "attributes": {
            "NORMAL": 1,
            "POSITION": 0,
            "TEXCOORD_0": 2
          },
          "indices": 3,
          "material": 0,
          "mode": 4
        }
      ]
    },
    {
      "name": "Object_1",
      "primitives": [
        {
          "attributes": {
            "NORMAL": 5,
            "POSITION": 4,
            "TEXCOORD_0": 6
          },
          "indices": 7,
          "material": 1,
          "mode": 4
        }
      ]
    },
    {
      "name": "Object_2",
      "primitives": [
        {
          "attributes": {
            "NORMAL": 9,
            "POSITION": 8,
            "TEXCOORD_0": 10
          },
          "indices": 11,
          "material": 2,
          "mode": 4
        }
      ]
    }
  ],
  "nodes": [
    {
      "children": [
        1
      ],
      "matrix": [
        1.0,
        0.0,
        0.0,
        0.0,
        0.0,
        2.220446049250313e-16,
        -1.0,
        0.0,
        0.0,
        1.0,
        2.220446049250313e-16,
        0.0,
        0.0,
        0.0,
        0.0,
        1.0
      ],
      "name": "Sketchfab_model"
    },
    {
      "children": [
        2,
        3,
        4
      ],
      "name": "VEHICLE_Hunter-Chopper.obj.cleaner.materialmerger.gles"
    },
    {
      "mesh": 0,
      "name": "Object_2"
    },
    {
      "mesh": 1,
      "name": "Object_3"
    },
    {
      "mesh": 2,
      "name": "Object_4"
    }
  ],
  "samplers": [
    {
      "magFilter": 9729,
      "minFilter": 9987,
      "wrapS": 10497,
      "wrapT": 10497
    }
  ],
  "scene": 0,
  "scenes": [
    {
      "name": "Sketchfab_Scene",
      "nodes": [
        0
      ]
    }
  ],
  "textures": [
    {
      "sampler": 0,
      "source": 0
    },
    {
      "sampler": 0,
      "source": 1
    },
    {
      "sampler": 0,
      "source": 2
    }
  ]
}
